<svg width="414" height="5587" viewBox="0 0 414 5587" fill="none" xmlns="http://www.w3.org/2000/svg">
<path d="M-0.650546 -1.09606e-07L464.685 0L185.484 -6.57634e-08C197.915 358.645 210.347 717.289 178.156 1222.16C145.964 1727.02 69.1498 2378.11 96.8135 2920.08C124.477 3462.05 256.619 3894.9 288.81 4321.2C321.002 4747.5 253.243 5167.25 185.484 5587L-0.650547 5587L-0.650546 -1.09606e-07Z" fill="url(#paint0_linear)" fill-opacity="0.4"/>
<path d="M-0.650546 -1.09606e-07L464.685 0L46.2494 -9.85588e-08C77.7342 406.97 109.219 813.939 99.7447 1226.52C90.2705 1639.1 39.8373 2057.3 26.4635 2579.62C13.0897 3101.95 36.7752 3728.41 46.2494 4246.99C55.7237 4765.58 50.9866 5176.29 46.2494 5587L-0.650547 5587L-0.650546 -1.09606e-07Z" fill="url(#paint1_linear)" fill-opacity="0.4"/>
<defs>
<linearGradient id="paint0_linear" x1="232.017" y1="5587" x2="232.017" y2="-5.48034e-08" gradientUnits="userSpaceOnUse">
<stop stop-color="#D92B04"/>
<stop offset="1" stop-color="#F2B705"/>
</linearGradient>
<linearGradient id="paint1_linear" x1="232.017" y1="5587" x2="232.017" y2="-5.48034e-08" gradientUnits="userSpaceOnUse">
<stop stop-color="#D92B04"/>
<stop offset="1" stop-color="#F2B705"/>
</linearGradient>
</defs>
</svg>
