<?xml version="1.0" encoding="UTF-8" standalone="no"?>
<svg
   width="272"
   height="272"
   viewBox="0 0 272 272"
   fill="none"
   version="1.1"
   id="svg84"
   sodipodi:docname="logo.svg"
   inkscape:version="1.1 (c68e22c387, 2021-05-23)"
   xmlns:inkscape="http://www.inkscape.org/namespaces/inkscape"
   xmlns:sodipodi="http://sodipodi.sourceforge.net/DTD/sodipodi-0.dtd"
   xmlns="http://www.w3.org/2000/svg"
   xmlns:svg="http://www.w3.org/2000/svg">
  <defs
     id="defs88" />
  <sodipodi:namedview
     id="namedview86"
     pagecolor="#ffffff"
     bordercolor="#666666"
     borderopacity="1.0"
     inkscape:pageshadow="2"
     inkscape:pageopacity="0.0"
     inkscape:pagecheckerboard="0"
     showgrid="false"
     inkscape:zoom="2.3970588"
     inkscape:cx="135.79141"
     inkscape:cy="236.74847"
     inkscape:window-width="1600"
     inkscape:window-height="837"
     inkscape:window-x="-8"
     inkscape:window-y="-8"
     inkscape:window-maximized="1"
     inkscape:current-layer="svg84" />
  <path
     d="M44.7546 217.651C44.9089 217.644 45.0629 217.671 45.2055 217.73C45.3482 217.79 45.4761 217.88 45.58 217.994C45.7626 218.212 45.8595 218.488 45.8526 218.773C45.861 219.057 45.7639 219.334 45.58 219.551C45.4751 219.672 45.3443 219.768 45.1973 219.831C45.0504 219.894 44.8911 219.924 44.7312 219.917H36.0949C35.9309 219.926 35.7675 219.893 35.6193 219.822C35.4711 219.752 35.3428 219.645 35.2461 219.512C35.066 219.312 34.9686 219.05 34.9735 218.78V188.222C34.9671 188.066 34.9967 187.91 35.0602 187.767C35.1237 187.624 35.2193 187.497 35.3395 187.397C35.5573 187.214 35.8342 187.117 36.1183 187.124C36.4021 187.119 36.6785 187.216 36.897 187.397C37.0102 187.507 37.0992 187.639 37.1582 187.785C37.2172 187.931 37.245 188.088 37.2397 188.246V217.651H44.7546Z"
     fill="white"
     id="path4"
     style="fill:#000000" />
  <path
     d="M51.4049 219.045C51.3789 219.197 51.3173 219.34 51.2253 219.463C51.1332 219.586 51.0133 219.686 50.8754 219.754C50.634 219.875 50.3557 219.9 50.0966 219.824C49.8061 219.762 49.5515 219.589 49.388 219.341C49.2956 219.215 49.2346 219.069 49.2102 218.914C49.1859 218.76 49.1987 218.602 49.2478 218.453C49.8241 215.894 50.3666 212.992 50.8754 209.747C51.2076 207.52 51.61 204.496 52.0824 200.675L52.6275 196.127C52.8456 194.421 53.0403 192.911 53.2272 191.602L53.2739 191.104L53.3362 190.598C53.3829 190.156 53.4296 189.798 53.4764 189.523C53.5797 188.824 53.8465 188.16 54.2551 187.584C54.321 187.455 54.4163 187.344 54.5332 187.26C54.6501 187.175 54.7853 187.119 54.9279 187.096C55.0705 187.073 55.2165 187.084 55.3539 187.129C55.4914 187.173 55.6165 187.249 55.7191 187.35C56.1678 187.722 56.4869 188.226 56.6303 188.791C57.1646 190.967 57.5754 193.172 57.8607 195.395C57.9697 196.236 58.1099 197.357 58.2734 198.751L58.4837 200.418L58.6862 202.069C59.2936 206.866 59.9477 212.449 60.6486 218.819C60.6725 218.96 60.6624 219.104 60.619 219.239C60.5756 219.375 60.5003 219.498 60.3994 219.598C60.2933 219.691 60.17 219.763 60.0364 219.808C59.9027 219.853 59.7615 219.872 59.6207 219.863C59.465 219.883 59.307 219.869 59.1569 219.824C59.0068 219.778 58.868 219.701 58.7497 219.599C58.6313 219.496 58.536 219.369 58.47 219.226C58.4041 219.084 58.3689 218.93 58.3669 218.773V218.516L57.8218 213.68H52.5029C52.1655 215.611 51.7995 217.399 51.4049 219.045ZM54.5199 199.187C53.8813 204.571 53.3336 208.646 52.8767 211.414H57.4869C57.0664 207.811 56.6718 204.574 56.3032 201.703C55.8723 198.411 55.4985 195.761 55.1818 193.752V193.681L54.8392 196.462L54.5199 199.187Z"
     fill="white"
     id="path6"
     style="fill:#000000" />
  <path
     d="M73.5915 189.406C73.4347 189.415 73.2781 189.386 73.1345 189.323C72.991 189.259 72.8646 189.162 72.766 189.04C72.5821 188.823 72.4851 188.546 72.4934 188.261C72.4865 187.977 72.5834 187.7 72.766 187.483C72.8684 187.365 72.9955 187.271 73.1381 187.208C73.2807 187.145 73.4355 187.114 73.5915 187.117H84.6029C84.7594 187.11 84.9152 187.14 85.0583 187.203C85.2015 187.267 85.3281 187.362 85.4284 187.483C85.6109 187.7 85.7078 187.977 85.7009 188.261C85.7093 188.546 85.6122 188.823 85.4284 189.04C85.3241 189.162 85.1935 189.258 85.0464 189.321C84.8992 189.385 84.7396 189.414 84.5796 189.406H80.2419V218.819C80.2484 218.976 80.2187 219.132 80.1552 219.275C80.0918 219.418 79.9962 219.544 79.8759 219.645C79.6563 219.823 79.3801 219.917 79.0972 219.91C78.8138 219.921 78.5363 219.826 78.3184 219.645C78.1981 219.544 78.102 219.418 78.0373 219.275C77.9725 219.132 77.9409 218.976 77.9446 218.819V189.406H73.5915Z"
     fill="white"
     id="path8"
     style="fill:#000000" />
  <path
     d="M92.0553 219.707C90.015 219.115 88.4913 217.433 87.4841 214.661C86.4769 211.889 85.9785 208.301 85.9889 203.899C85.9889 199.294 86.4536 195.644 87.3829 192.949C88.6081 189.378 90.4823 187.428 93.0054 187.101C93.2102 187.085 93.4158 187.085 93.6206 187.101H93.8542H94.01C94.92 187.234 95.7706 187.632 96.4552 188.246C97.6336 189.37 98.5186 190.766 99.0329 192.311C99.5817 193.848 99.9578 195.441 100.154 197.061C100.635 200.596 100.742 204.172 100.474 207.73C100.235 211.364 99.6585 214.108 98.7447 215.961C98.1235 217.227 97.1742 218.303 95.9958 219.076C95.4263 219.466 94.7776 219.725 94.0963 219.834C93.415 219.943 92.718 219.9 92.0553 219.707ZM88.9404 195.94C88.3688 199.02 88.1467 202.155 88.2784 205.285C88.3927 209.069 88.8495 211.985 89.649 214.03C90.0109 215.052 90.5962 215.981 91.3623 216.748C91.729 217.142 92.2072 217.415 92.7331 217.531C93.2591 217.646 93.8077 217.599 94.3059 217.394C95.3071 216.983 96.122 216.218 96.5954 215.245C97.0809 214.276 97.4345 213.247 97.6467 212.184C98.0854 209.902 98.3225 207.585 98.3554 205.261C98.4761 202.131 98.2515 198.997 97.6857 195.916C97.6 195.535 97.5299 195.231 97.4832 194.982C97.3897 194.616 97.2963 194.273 97.2106 193.954C97.0116 193.217 96.7511 192.498 96.4319 191.805C95.6428 190.18 94.6044 189.352 93.3169 189.321C92.0398 189.406 90.9807 190.247 90.2019 191.828C89.8821 192.513 89.6216 193.224 89.4232 193.954C89.283 194.53 89.1039 195.177 88.9715 195.94H88.9404Z"
     fill="white"
     id="path10"
     style="fill:#000000" />
  <path
     d="M113.167 219.341C112.494 219.751 111.712 219.946 110.925 219.902C110.138 219.857 109.383 219.575 108.76 219.092C107.494 218.1 106.566 216.74 106.104 215.199C105.347 212.931 104.881 210.575 104.718 208.19C104.562 206.482 104.477 204.083 104.461 200.994C104.461 199.515 104.508 197.381 104.601 194.593L104.687 191.416C104.687 190.232 104.734 189.165 104.734 188.223C104.727 188.066 104.757 187.911 104.82 187.767C104.884 187.624 104.979 187.498 105.1 187.397C105.32 187.22 105.595 187.124 105.878 187.124C106.161 187.124 106.436 187.22 106.657 187.397C106.777 187.503 106.872 187.634 106.935 187.781C106.998 187.928 107.028 188.086 107.023 188.246C107.023 189.22 107.023 190.333 106.953 191.579L106.859 194.936C106.766 197.801 106.735 200.036 106.75 201.633C106.748 204.198 106.883 206.761 107.155 209.311C107.311 210.588 107.475 211.647 107.638 212.426C107.824 213.445 108.138 214.437 108.573 215.378C108.828 215.95 109.175 216.476 109.601 216.935C109.807 217.17 110.065 217.354 110.354 217.473C110.643 217.591 110.955 217.642 111.267 217.62C111.577 217.581 111.876 217.477 112.144 217.317C112.412 217.156 112.644 216.941 112.825 216.686C113.215 216.187 113.525 215.63 113.744 215.035C114.55 212.797 115.047 210.46 115.223 208.089C115.317 207.029 115.379 205.83 115.41 204.506V202.723V200.963C115.41 199.499 115.41 197.373 115.278 194.585L115.184 191.408C115.184 190.224 115.138 189.165 115.138 188.238C115.13 188.083 115.158 187.929 115.219 187.786C115.279 187.643 115.371 187.515 115.488 187.413C115.705 187.229 115.982 187.132 116.267 187.14C116.55 187.137 116.826 187.233 117.045 187.413C117.159 187.522 117.249 187.654 117.308 187.801C117.367 187.947 117.394 188.104 117.388 188.262C117.388 189.601 117.427 191.33 117.505 193.448L117.567 196.026L117.637 198.635C117.737 202.096 117.623 205.56 117.295 209.007L117.225 209.646L117.162 210.308C117.1 210.845 117.03 211.32 116.952 211.749C116.809 212.754 116.595 213.748 116.313 214.723C115.649 217.044 114.6 218.583 113.167 219.341Z"
     fill="white"
     id="path12"
     style="fill:#000000" />
  <path
     d="M121.438 188.978C121.341 188.808 121.287 188.618 121.279 188.423C121.271 188.228 121.309 188.034 121.391 187.856C121.468 187.65 121.606 187.471 121.787 187.345C121.968 187.218 122.183 187.15 122.403 187.148C125.934 186.914 128.454 187.82 129.965 189.866C131.4 191.97 132.128 194.476 132.044 197.022C132.044 200.137 131.382 202.619 130.058 204.467C129.42 205.317 128.628 206.038 127.722 206.593C128.239 208.602 128.919 210.566 129.755 212.465L130.378 213.882L131.016 215.299C131.577 216.545 131.997 217.503 132.27 218.15C132.335 218.298 132.369 218.458 132.369 218.621C132.369 218.783 132.335 218.943 132.27 219.092C132.151 219.358 131.952 219.582 131.701 219.73C131.47 219.876 131.193 219.934 130.923 219.894C130.777 219.851 130.643 219.774 130.532 219.67C130.421 219.566 130.336 219.437 130.284 219.294C129.996 218.609 129.568 217.643 129.007 216.39L128.337 214.957L127.722 213.516C126.863 211.584 126.153 209.59 125.596 207.551C124.987 207.747 124.362 207.885 123.727 207.964V218.819C123.734 218.976 123.704 219.132 123.64 219.275C123.577 219.418 123.481 219.544 123.361 219.645C123.138 219.817 122.864 219.91 122.582 219.91C122.301 219.91 122.027 219.817 121.804 219.645C121.686 219.542 121.592 219.415 121.529 219.273C121.466 219.13 121.435 218.975 121.438 218.819V188.978ZM123.727 205.674C124.723 205.573 125.679 205.229 126.512 204.672C127.344 204.116 128.027 203.363 128.501 202.481C129.491 200.691 129.927 198.648 129.755 196.609C129.756 194.722 129.215 192.873 128.197 191.283C127.255 190.021 125.76 189.383 123.719 189.383L123.727 205.674Z"
     fill="white"
     id="path14"
     style="fill:#000000" />
  <path
     d="M144.628 189.001C144.487 188.841 144.394 188.644 144.362 188.432C144.331 188.221 144.361 188.004 144.449 187.81C144.507 187.583 144.641 187.382 144.827 187.241C145.014 187.099 145.243 187.025 145.477 187.031C147.199 186.933 148.912 187.334 150.412 188.185C151.912 189.035 153.135 190.3 153.934 191.828C155.603 194.889 156.461 198.326 156.426 201.812C156.546 206.401 155.876 210.235 154.417 213.314C152.564 217.161 149.607 219.346 145.547 219.871C145.35 219.919 145.142 219.894 144.962 219.801C144.782 219.708 144.641 219.553 144.566 219.364C144.482 219.184 144.444 218.987 144.455 218.788C144.466 218.59 144.525 218.397 144.628 218.228V189.001ZM146.918 217.355C149.737 216.545 151.757 214.451 152.977 211.071C153.953 208.095 154.354 204.961 154.16 201.835C154.144 199.163 153.615 196.52 152.603 194.048C151.346 191.322 149.464 189.764 146.957 189.375L146.918 217.355Z"
     fill="white"
     id="path16"
     style="fill:#000000" />
  <path
     d="M160.172 188.449C160.14 188.293 160.139 188.132 160.17 187.975C160.201 187.819 160.262 187.67 160.351 187.538C160.453 187.389 160.591 187.269 160.751 187.189C160.912 187.109 161.091 187.07 161.27 187.078H169.517C169.674 187.072 169.829 187.101 169.972 187.165C170.116 187.228 170.242 187.324 170.343 187.444C170.524 187.662 170.618 187.94 170.607 188.223C170.615 188.506 170.521 188.782 170.343 189.002C170.24 189.119 170.113 189.213 169.97 189.276C169.828 189.339 169.673 189.371 169.517 189.368H162.431V202.692H169.517C169.674 202.685 169.829 202.715 169.972 202.779C170.116 202.842 170.242 202.938 170.343 203.058C170.522 203.277 170.616 203.554 170.607 203.837C170.619 204.12 170.524 204.398 170.343 204.615C170.241 204.735 170.115 204.83 169.972 204.893C169.829 204.957 169.673 204.987 169.517 204.981H162.431V217.667H169.517C169.671 217.66 169.825 217.687 169.968 217.746C170.111 217.806 170.239 217.896 170.343 218.01C170.522 218.229 170.616 218.505 170.607 218.789C170.619 219.072 170.524 219.349 170.343 219.567C170.241 219.687 170.115 219.782 169.972 219.845C169.829 219.908 169.673 219.939 169.517 219.933H161.294C161.131 219.94 160.97 219.908 160.822 219.841C160.675 219.773 160.545 219.671 160.445 219.544C160.255 219.331 160.157 219.051 160.172 218.765V188.449Z"
     fill="white"
     id="path18"
     style="fill:#000000" />
  <path
     d="M183.161 188.885C183.061 188.716 183.005 188.525 182.997 188.33C182.989 188.134 183.029 187.94 183.114 187.763C183.189 187.557 183.325 187.378 183.505 187.251C183.685 187.124 183.899 187.056 184.119 187.055C187.654 186.831 190.175 187.737 191.68 189.772C193.117 191.867 193.846 194.367 193.759 196.906C193.759 200.021 193.098 202.497 191.774 204.335C191.021 205.322 190.062 206.133 188.962 206.71C187.874 207.31 186.678 207.691 185.443 207.831V218.82C185.449 218.976 185.419 219.132 185.356 219.275C185.292 219.418 185.197 219.545 185.077 219.645C184.858 219.825 184.581 219.919 184.298 219.91C184.014 219.921 183.737 219.827 183.519 219.645C183.4 219.544 183.305 219.417 183.241 219.274C183.178 219.131 183.148 218.976 183.153 218.82L183.161 188.885ZM185.443 205.565C186.438 205.459 187.393 205.112 188.224 204.554C189.056 203.997 189.74 203.245 190.216 202.365C191.208 200.584 191.647 198.548 191.478 196.516C191.475 194.629 190.935 192.781 189.92 191.19C188.975 189.928 187.483 189.297 185.443 189.297V205.565Z"
     fill="white"
     id="path20"
     style="fill:#000000" />
  <path
     d="M193.456 218.493C193.419 218.642 193.349 218.782 193.25 218.9C193.152 219.019 193.028 219.114 192.887 219.178C192.63 219.296 192.337 219.31 192.07 219.217C191.795 219.143 191.556 218.972 191.4 218.734C191.317 218.602 191.264 218.453 191.245 218.298C191.226 218.144 191.242 217.987 191.291 217.838L200.145 188.48C200.188 188.329 200.263 188.19 200.365 188.071C200.467 187.953 200.594 187.858 200.737 187.794C200.989 187.708 201.264 187.708 201.516 187.794C201.791 187.872 202.029 188.046 202.186 188.285C202.265 188.417 202.315 188.565 202.331 188.719C202.347 188.872 202.33 189.027 202.279 189.173L193.456 218.493Z"
     fill="white"
     id="path22"
     style="fill:#000000" />
  <path
     d="M206.048 182.592C205.962 182.592 205.892 182.475 205.853 182.242C205.828 181.983 205.828 181.722 205.853 181.463C205.855 181.201 205.886 180.939 205.947 180.684C206.009 180.443 206.079 180.318 206.165 180.326L213.633 180.606C213.711 180.606 213.773 180.731 213.82 180.98C213.883 181.499 213.862 182.025 213.758 182.538C213.695 182.771 213.625 182.88 213.54 182.88L206.048 182.592Z"
     fill="white"
     id="path24"
     style="fill:#000000" />
  <path
     d="M206.539 189.383C206.384 189.39 206.23 189.363 206.088 189.304C205.945 189.245 205.817 189.155 205.713 189.04C205.529 188.823 205.432 188.546 205.441 188.262C205.437 187.978 205.534 187.702 205.713 187.483C205.818 187.37 205.947 187.281 206.089 187.222C206.231 187.163 206.385 187.135 206.539 187.14H217.052C217.321 187.135 217.583 187.233 217.784 187.413C217.976 187.53 218.119 187.713 218.185 187.929C218.251 188.144 218.236 188.376 218.142 188.581C213.989 200.355 210.692 209.991 208.252 217.488C211.245 217.175 214.262 217.175 217.254 217.488C217.564 217.548 217.842 217.719 218.033 217.971C218.212 218.209 218.307 218.499 218.306 218.796C218.312 218.929 218.291 219.062 218.244 219.186C218.197 219.311 218.125 219.424 218.033 219.52C217.928 219.629 217.798 219.71 217.653 219.755C217.509 219.8 217.356 219.808 217.208 219.777C213.658 219.415 210.08 219.452 206.539 219.886C206.348 219.925 206.15 219.9 205.975 219.814C205.8 219.728 205.659 219.586 205.573 219.411C205.492 219.244 205.45 219.06 205.45 218.874C205.45 218.688 205.492 218.504 205.573 218.337C208.003 210.752 211.279 201.093 215.401 189.36L206.539 189.383Z"
     fill="white"
     id="path26"
     style="fill:#000000" />
  <path
     d="M221.49 188.448C221.46 188.292 221.461 188.13 221.493 187.974C221.525 187.818 221.588 187.669 221.677 187.537C221.779 187.389 221.917 187.27 222.078 187.19C222.239 187.109 222.417 187.071 222.596 187.078H230.835C230.991 187.071 231.146 187.1 231.288 187.164C231.43 187.227 231.555 187.323 231.653 187.444C231.842 187.658 231.943 187.937 231.933 188.222C231.94 188.508 231.84 188.785 231.653 189.001C231.553 189.119 231.427 189.214 231.286 189.277C231.144 189.341 230.99 189.371 230.835 189.367H223.749V202.691H230.835C230.991 202.684 231.146 202.714 231.288 202.777C231.43 202.841 231.555 202.937 231.653 203.057C231.841 203.273 231.941 203.551 231.933 203.836C231.943 204.122 231.842 204.401 231.653 204.615C231.554 204.735 231.429 204.83 231.287 204.893C231.145 204.957 230.991 204.987 230.835 204.981H223.749V217.667H230.835C230.989 217.659 231.142 217.686 231.283 217.745C231.425 217.805 231.551 217.895 231.653 218.009C231.841 218.225 231.941 218.503 231.933 218.788C231.943 219.074 231.842 219.353 231.653 219.567C231.554 219.687 231.429 219.782 231.287 219.845C231.145 219.909 230.991 219.939 230.835 219.933H222.596C222.435 219.94 222.275 219.908 222.129 219.84C221.982 219.772 221.854 219.671 221.755 219.543C221.567 219.329 221.466 219.05 221.475 218.765L221.49 188.448Z"
     fill="white"
     id="path28"
     style="fill:#000000" />
  <path
     d="M157.774 128.236L157.112 128.213L157.12 128.174L157.774 128.221H157.657L157.774 128.236Z"
     fill="#1D1D1D"
     id="path30" />
  <path
     d="M156.707 132.519V132.511L156.894 132.48L156.707 132.465H157.034L157.361 132.418L157.049 132.465L157.361 132.511L156.925 132.488L156.707 132.519Z"
     fill="#1D1D1D"
     id="path32" />
  <path
     d="M158.475 117.575L158.486 117.552H158.475V117.575Z"
     fill="#1D1D1D"
     id="path34" />
  <path
     d="M158.475 117.902H158.109L158.148 117.536V117.521L158.475 117.544V117.24V117.544L158.81 117.552V117.887L158.475 117.902Z"
     fill="#1D1D1D"
     id="path36" />
  <path
     d="M134.271 166.978C133.775 166.92 133.323 166.667 133.012 166.277C132.701 165.886 132.558 165.388 132.612 164.891L133.671 155.414C133.845 154.297 134.443 153.29 135.341 152.604C136.239 151.918 137.368 151.605 138.491 151.73C139.614 151.856 140.646 152.41 141.37 153.278C142.094 154.146 142.455 155.26 142.378 156.387L141.459 164.603C141.404 165.099 141.155 165.553 140.766 165.864C140.376 166.176 139.879 166.321 139.384 166.266C138.888 166.211 138.434 165.962 138.122 165.572C137.811 165.183 137.666 164.686 137.721 164.19L138.663 155.967C138.663 155.725 138.437 155.5 138.095 155.461C137.752 155.422 137.464 155.578 137.433 155.827L136.382 165.312C136.354 165.56 136.277 165.801 136.155 166.019C136.034 166.238 135.87 166.43 135.674 166.585C135.478 166.74 135.253 166.855 135.012 166.922C134.771 166.99 134.519 167.009 134.271 166.978ZM127.909 166.262C127.414 166.207 126.96 165.958 126.648 165.57C126.336 165.182 126.19 164.686 126.242 164.19L127.309 154.705C127.309 154.472 127.076 154.246 126.741 154.207C126.406 154.168 126.102 154.324 126.079 154.565L125.098 163.334C125.07 163.579 124.995 163.817 124.876 164.033C124.757 164.25 124.597 164.441 124.404 164.595C124.211 164.749 123.99 164.864 123.753 164.933C123.516 165.002 123.268 165.024 123.022 164.996C122.777 164.969 122.539 164.894 122.323 164.775C122.106 164.656 121.915 164.496 121.761 164.303C121.607 164.11 121.492 163.889 121.423 163.652C121.354 163.415 121.332 163.167 121.36 162.921L122.341 154.152C122.485 153.013 123.072 151.976 123.975 151.265C124.878 150.554 126.024 150.227 127.165 150.354C128.307 150.48 129.353 151.051 130.078 151.942C130.803 152.834 131.148 153.974 131.039 155.118L129.988 164.603C129.933 165.095 129.686 165.545 129.301 165.855C128.916 166.166 128.424 166.312 127.932 166.262H127.909ZM145.867 165.989C145.621 165.964 145.382 165.89 145.165 165.772C144.948 165.654 144.756 165.494 144.601 165.302C144.446 165.109 144.331 164.887 144.262 164.65C144.193 164.412 144.172 164.164 144.2 163.918L144.979 156.683C145.107 155.522 145.691 154.458 146.603 153.727C147.515 152.996 148.68 152.658 149.842 152.786C151.004 152.914 152.067 153.498 152.798 154.41C153.529 155.322 153.868 156.487 153.74 157.649L153.428 162.594C153.385 163.088 153.152 163.547 152.78 163.875C152.407 164.202 151.923 164.374 151.427 164.354C151.18 164.338 150.939 164.274 150.717 164.165C150.496 164.055 150.298 163.903 150.135 163.717C149.972 163.531 149.848 163.315 149.769 163.081C149.69 162.847 149.658 162.599 149.675 162.353L149.994 157.314C149.994 156.987 149.69 156.761 149.441 156.73C149.257 156.711 149.072 156.758 148.919 156.862L147.977 164.331C147.95 164.577 147.874 164.816 147.755 165.033C147.635 165.25 147.473 165.441 147.279 165.595C147.085 165.749 146.863 165.863 146.624 165.931C146.386 165.999 146.136 166.019 145.89 165.989H145.867ZM116.734 163.529C116.488 163.502 116.251 163.428 116.034 163.309C115.818 163.191 115.627 163.031 115.473 162.838C115.319 162.646 115.204 162.424 115.136 162.187C115.068 161.95 115.047 161.702 115.075 161.457L115.971 153.436C115.971 153.187 115.651 152.969 115.41 152.938C115.169 152.906 114.802 153.015 114.74 153.35L114.032 158.607C113.958 159.1 113.695 159.545 113.297 159.846C112.9 160.148 112.4 160.281 111.906 160.219C111.661 160.185 111.426 160.104 111.212 159.979C110.999 159.855 110.813 159.689 110.664 159.493C110.515 159.296 110.406 159.072 110.344 158.833C110.282 158.594 110.267 158.345 110.301 158.101L111.01 152.844C111.197 151.736 111.802 150.741 112.701 150.066C113.6 149.391 114.724 149.087 115.84 149.217C116.957 149.347 117.981 149.901 118.701 150.764C119.421 151.628 119.782 152.735 119.709 153.856L118.813 161.87C118.76 162.362 118.514 162.814 118.128 163.125C117.743 163.436 117.25 163.581 116.757 163.529H116.734ZM156.909 162.75C156.415 162.695 155.962 162.446 155.651 162.057C155.34 161.669 155.196 161.173 155.251 160.678L156.201 152.159L109.608 146.965L108.635 155.687C108.576 156.181 108.325 156.632 107.936 156.943C107.547 157.253 107.051 157.398 106.556 157.345C106.31 157.319 106.071 157.244 105.854 157.126C105.637 157.007 105.446 156.846 105.292 156.652C105.137 156.459 105.023 156.237 104.955 155.999C104.888 155.761 104.868 155.512 104.897 155.266L106.081 144.675C106.141 144.183 106.392 143.734 106.779 143.424C107.166 143.114 107.659 142.968 108.152 143.016L158.482 148.631C158.979 148.686 159.434 148.936 159.746 149.326C160.059 149.716 160.203 150.214 160.149 150.71L158.988 161.091C158.936 161.584 158.689 162.035 158.304 162.346C157.918 162.657 157.425 162.802 156.933 162.75H156.909ZM152.237 146.209H152.019C151.773 146.182 151.536 146.107 151.32 145.987C151.104 145.868 150.913 145.707 150.76 145.514C150.606 145.32 150.493 145.099 150.425 144.861C150.358 144.624 150.339 144.375 150.368 144.13L160.18 56.1318C159.931 55.1195 154.729 51.9266 143.928 50.7196C133.126 49.5125 127.333 51.4983 126.857 52.4717L117.092 140.392C117.031 140.886 116.78 141.336 116.391 141.646C116.002 141.956 115.507 142.101 115.013 142.051C114.767 142.024 114.529 141.948 114.313 141.829C114.096 141.71 113.906 141.549 113.751 141.356C113.597 141.162 113.483 140.941 113.415 140.703C113.347 140.466 113.326 140.217 113.354 139.971L123.166 51.9733C123.439 49.5514 125.923 47.9161 130.564 47.1062C135.146 46.4244 139.799 46.3693 144.395 46.9426C148.999 47.3894 153.521 48.4609 157.836 50.1277C162.181 51.9422 164.245 54.0837 163.972 56.5134L154.16 144.512C154.114 144.98 153.894 145.413 153.543 145.728C153.193 146.042 152.738 146.213 152.268 146.209H152.237ZM145.765 145.485H145.555C145.06 145.428 144.607 145.178 144.296 144.788C143.985 144.398 143.842 143.901 143.896 143.406L144.784 135.431C144.812 135.186 144.887 134.949 145.007 134.734C145.126 134.518 145.286 134.328 145.479 134.174C145.672 134.021 145.893 133.906 146.13 133.838C146.367 133.77 146.615 133.749 146.86 133.777C147.104 133.804 147.342 133.88 147.557 133.999C147.773 134.118 147.963 134.279 148.117 134.472C148.27 134.664 148.385 134.885 148.453 135.122C148.521 135.359 148.542 135.607 148.514 135.852L147.666 143.818C147.614 144.278 147.394 144.702 147.05 145.009C146.705 145.317 146.259 145.486 145.797 145.485H145.765ZM137.939 143.149C137.442 143.094 136.988 142.844 136.675 142.454C136.363 142.064 136.218 141.566 136.273 141.07L137.16 133.103C137.221 132.609 137.473 132.159 137.861 131.849C138.25 131.539 138.745 131.394 139.24 131.444C139.485 131.47 139.723 131.545 139.94 131.663C140.157 131.782 140.348 131.942 140.503 132.134C140.658 132.326 140.773 132.548 140.842 132.785C140.911 133.022 140.933 133.27 140.906 133.516L140.01 141.49C139.946 141.972 139.698 142.41 139.317 142.712C138.937 143.014 138.454 143.156 137.97 143.11L137.939 143.149ZM122.193 142.907C121.698 142.853 121.246 142.604 120.935 142.215C120.623 141.827 120.479 141.331 120.534 140.836L121.422 132.854C121.486 132.362 121.739 131.914 122.127 131.605C122.514 131.295 123.007 131.148 123.501 131.195C123.996 131.252 124.449 131.502 124.76 131.892C125.071 132.282 125.215 132.779 125.16 133.274L124.272 141.249C124.206 141.731 123.956 142.169 123.574 142.471C123.192 142.773 122.708 142.915 122.224 142.868L122.193 142.907ZM130.152 142.284C129.655 142.23 129.2 141.98 128.888 141.59C128.575 141.2 128.43 140.702 128.485 140.205L129.373 132.231C129.437 131.737 129.691 131.288 130.08 130.979C130.47 130.669 130.965 130.523 131.46 130.572C131.705 130.598 131.942 130.673 132.158 130.791C132.374 130.91 132.565 131.07 132.718 131.263C132.872 131.455 132.986 131.677 133.053 131.914C133.12 132.151 133.14 132.399 133.111 132.644L132.223 140.626C132.159 141.107 131.91 141.545 131.53 141.847C131.149 142.149 130.666 142.292 130.183 142.245L130.152 142.284ZM149.067 130.884C148.798 130.883 148.533 130.824 148.289 130.712C144.164 129.06 139.824 128.011 135.4 127.597C131.176 127.062 126.899 127.096 122.683 127.698C122.433 127.758 122.173 127.766 121.919 127.722C121.665 127.677 121.423 127.581 121.208 127.439C120.993 127.297 120.809 127.113 120.668 126.897C120.527 126.682 120.432 126.439 120.388 126.185C120.345 125.932 120.353 125.671 120.414 125.421C120.475 125.171 120.586 124.935 120.742 124.73C120.897 124.524 121.093 124.353 121.317 124.226C121.541 124.099 121.789 124.019 122.045 123.992C126.61 123.327 131.244 123.282 135.821 123.859C140.635 124.308 145.358 125.46 149.838 127.278C150.233 127.454 150.556 127.761 150.751 128.147C150.947 128.533 151.004 128.974 150.913 129.397C150.821 129.82 150.587 130.198 150.25 130.469C149.912 130.74 149.492 130.886 149.059 130.884H149.067ZM147.884 125.23C147.388 125.173 146.936 124.922 146.625 124.533C146.314 124.143 146.17 123.646 146.225 123.151L147.113 115.176C147.175 114.684 147.427 114.235 147.816 113.925C148.204 113.615 148.698 113.469 149.192 113.518C149.687 113.572 150.14 113.821 150.453 114.209C150.765 114.597 150.911 115.094 150.858 115.589L149.955 123.563C149.93 123.813 149.855 124.055 149.735 124.275C149.614 124.495 149.451 124.689 149.254 124.845C149.057 125 148.83 125.114 148.588 125.181C148.346 125.247 148.093 125.264 147.845 125.23H147.884ZM140.47 122.894H140.267C139.771 122.839 139.316 122.589 139.004 122.199C138.691 121.809 138.546 121.311 138.601 120.814L139.497 112.848C139.551 112.352 139.801 111.898 140.19 111.587C140.579 111.275 141.076 111.13 141.572 111.185C142.068 111.24 142.521 111.489 142.833 111.879C143.145 112.268 143.289 112.765 143.234 113.261L142.339 121.235C142.279 121.696 142.052 122.119 141.7 122.422C141.347 122.725 140.896 122.888 140.431 122.878L140.47 122.894ZM124.521 122.637C124.025 122.582 123.57 122.332 123.257 121.942C122.945 121.552 122.8 121.054 122.855 120.557L123.75 112.583C123.813 112.09 124.065 111.641 124.453 111.332C124.841 111.022 125.335 110.876 125.83 110.924C126.325 110.981 126.777 111.232 127.088 111.621C127.399 112.011 127.543 112.508 127.488 113.004L126.554 120.923C126.531 121.172 126.46 121.413 126.343 121.633C126.226 121.854 126.067 122.049 125.874 122.207C125.681 122.365 125.459 122.483 125.22 122.554C124.981 122.625 124.73 122.648 124.482 122.621L124.521 122.637ZM132.472 122.006C132.227 121.979 131.989 121.903 131.772 121.784C131.556 121.665 131.365 121.504 131.211 121.311C131.057 121.118 130.942 120.896 130.874 120.658C130.806 120.421 130.785 120.172 130.813 119.927L131.709 111.96C131.77 111.468 132.02 111.019 132.407 110.709C132.794 110.399 133.287 110.253 133.781 110.301C134.026 110.328 134.264 110.402 134.481 110.52C134.698 110.639 134.889 110.799 135.044 110.991C135.199 111.184 135.314 111.405 135.383 111.642C135.452 111.879 135.474 112.127 135.447 112.373L134.551 120.347C134.524 120.596 134.446 120.836 134.324 121.054C134.202 121.272 134.037 121.463 133.84 121.616C133.642 121.77 133.416 121.882 133.174 121.946C132.933 122.01 132.681 122.025 132.433 121.99L132.472 122.006ZM151.162 112.085C150.894 112.086 150.628 112.03 150.383 111.921C146.261 110.273 141.923 109.224 137.503 108.806C133.278 108.269 129.001 108.305 124.786 108.915C124.536 108.974 124.277 108.981 124.024 108.936C123.771 108.891 123.531 108.795 123.316 108.653C123.102 108.512 122.919 108.328 122.778 108.113C122.638 107.898 122.542 107.657 122.498 107.404C122.454 107.151 122.462 106.892 122.522 106.642C122.582 106.393 122.692 106.158 122.845 105.952C122.999 105.747 123.193 105.575 123.416 105.447C123.638 105.319 123.885 105.238 124.14 105.208C128.704 104.541 133.338 104.493 137.916 105.068C142.731 105.516 147.454 106.67 151.933 108.495C152.331 108.668 152.657 108.973 152.855 109.36C153.053 109.746 153.111 110.189 153.019 110.613C152.928 111.037 152.692 111.416 152.351 111.686C152.011 111.956 151.588 112.1 151.154 112.092L151.162 112.085ZM150.212 106.221H150.01C149.513 106.166 149.058 105.916 148.746 105.526C148.433 105.136 148.288 104.638 148.343 104.141L149.239 96.1671C149.322 95.6953 149.582 95.2731 149.966 94.9863C150.35 94.6995 150.829 94.5697 151.305 94.6232C151.781 94.6768 152.219 94.9097 152.529 95.2746C152.84 95.6395 153 96.109 152.977 96.5876L152.042 104.57C151.983 105.023 151.761 105.44 151.417 105.741C151.073 106.042 150.63 106.207 150.173 106.205L150.212 106.221ZM142.596 103.884H142.386C142.14 103.857 141.902 103.782 141.686 103.663C141.469 103.543 141.278 103.383 141.124 103.189C140.97 102.996 140.856 102.774 140.788 102.537C140.719 102.299 140.699 102.051 140.727 101.805L141.615 93.8309C141.673 93.3364 141.925 92.8851 142.314 92.5746C142.703 92.2641 143.199 92.1195 143.694 92.1721C144.189 92.2269 144.641 92.476 144.952 92.8644C145.263 93.2529 145.407 93.749 145.353 94.2436L144.395 102.171C144.342 102.624 144.127 103.043 143.789 103.35C143.451 103.656 143.013 103.829 142.557 103.838L142.596 103.884ZM126.857 103.643C126.592 103.645 126.33 103.59 126.087 103.483C125.845 103.376 125.627 103.218 125.45 103.021C125.273 102.824 125.139 102.591 125.058 102.339C124.977 102.086 124.951 101.82 124.981 101.556L125.876 93.5817C125.904 93.3367 125.979 93.0996 126.099 92.8839C126.218 92.6682 126.378 92.4781 126.571 92.3244C126.764 92.1708 126.985 92.0566 127.222 91.9883C127.459 91.9201 127.707 91.8992 127.952 91.9268C128.197 91.9544 128.434 92.03 128.649 92.1493C128.865 92.2685 129.055 92.4291 129.209 92.6218C129.363 92.8145 129.477 93.0356 129.545 93.2724C129.613 93.5093 129.634 93.7573 129.606 94.0022L128.719 101.977C128.657 102.433 128.429 102.851 128.079 103.15C127.728 103.449 127.279 103.608 126.819 103.596L126.857 103.643ZM134.808 103.02H134.598C134.353 102.993 134.115 102.918 133.898 102.798C133.682 102.679 133.491 102.518 133.337 102.325C133.183 102.132 133.068 101.91 133 101.673C132.932 101.435 132.911 101.186 132.939 100.941L133.788 92.8886C133.851 92.3953 134.103 91.9456 134.491 91.6346C134.879 91.3236 135.372 91.1757 135.868 91.2221C136.363 91.2788 136.815 91.5294 137.126 91.9191C137.437 92.3088 137.581 92.8058 137.526 93.3013L136.607 101.299C136.565 101.761 136.355 102.191 136.016 102.507C135.677 102.823 135.233 103.003 134.77 103.012L134.808 103.02ZM153.265 93.3013C152.996 93.3072 152.73 93.2513 152.486 93.1378C148.362 91.4855 144.021 90.4364 139.598 90.0228C135.374 89.4793 131.096 89.5133 126.881 90.124C126.403 90.179 125.922 90.0492 125.537 89.7613C125.152 89.4735 124.892 89.0493 124.809 88.5755C124.726 88.1018 124.828 87.6145 125.093 87.2132C125.358 86.812 125.766 86.5272 126.234 86.4172C130.802 85.7486 135.439 85.7041 140.018 86.2848C144.835 86.7251 149.559 87.8799 154.036 89.7113C154.429 89.8872 154.75 90.193 154.944 90.5774C155.139 90.9618 155.195 91.4014 155.104 91.8224C155.012 92.2435 154.779 92.6202 154.443 92.8895C154.106 93.1588 153.688 93.3042 153.257 93.3013H153.265ZM152.338 87.2816H152.12C151.625 87.2268 151.173 86.9778 150.862 86.5893C150.551 86.2009 150.407 85.7048 150.461 85.2102L151.349 77.228C151.415 76.737 151.668 76.2904 152.056 75.9814C152.443 75.6723 152.935 75.5247 153.428 75.5693C153.674 75.5964 153.912 75.6718 154.128 75.791C154.345 75.9103 154.535 76.0712 154.69 76.2644C154.844 76.4575 154.958 76.6793 155.026 76.9168C155.095 77.1544 155.115 77.403 155.087 77.6486L154.199 85.6229C154.133 86.0768 153.903 86.491 153.554 86.7878C153.204 87.0845 152.758 87.2435 152.299 87.2349L152.338 87.2816ZM144.714 84.9454H144.496C144.241 84.9181 143.994 84.839 143.771 84.713C143.547 84.587 143.352 84.4167 143.197 84.2125C143.042 84.0084 142.93 83.7747 142.868 83.5258C142.806 83.2769 142.796 83.018 142.837 82.7649L143.725 74.7906C143.788 74.2963 144.041 73.8462 144.431 73.5362C144.821 73.2263 145.317 73.0811 145.812 73.1318C146.307 73.1866 146.759 73.4356 147.07 73.8241C147.381 74.2126 147.525 74.7087 147.471 75.2033L146.575 83.1854C146.528 83.6535 146.307 84.0866 145.954 84.3984C145.602 84.7102 145.145 84.8777 144.675 84.8675L144.714 84.9454ZM128.968 84.704H128.758C128.262 84.6473 127.81 84.3966 127.499 84.0069C127.188 83.6172 127.044 83.1202 127.099 82.6247L127.987 74.6504C128.049 74.1571 128.301 73.7074 128.689 73.3964C129.077 73.0854 129.571 72.9375 130.066 72.9839C130.538 73.0498 130.968 73.292 131.268 73.662C131.569 74.0319 131.718 74.5019 131.686 74.9775L130.798 82.9518C130.746 83.4117 130.527 83.8365 130.183 84.1452C129.838 84.454 129.392 84.6252 128.929 84.6261L128.968 84.704ZM136.927 84.081H136.716C136.462 84.0535 136.216 83.9746 135.992 83.8492C135.769 83.7238 135.574 83.5544 135.418 83.3513C135.262 83.1482 135.149 82.9156 135.086 82.6675C135.023 82.4195 135.01 82.1612 135.05 81.9083L135.945 73.9339C136.006 73.4404 136.258 72.9902 136.646 72.6801C137.035 72.37 137.53 72.2246 138.025 72.2752C138.27 72.3033 138.507 72.3793 138.722 72.499C138.938 72.6187 139.128 72.7797 139.281 72.9728C139.434 73.1659 139.548 73.3873 139.616 73.6244C139.683 73.8614 139.704 74.1095 139.676 74.3545L138.788 82.3288C138.739 82.7954 138.517 83.2267 138.165 83.5368C137.813 83.847 137.357 84.0135 136.888 84.0031L136.927 84.081ZM154.596 74.3622C150.474 72.7062 146.132 71.657 141.708 71.2473C137.487 70.7037 133.211 70.7377 128.999 71.3485C128.508 71.4352 128.004 71.3236 127.595 71.0381C127.187 70.7526 126.909 70.3166 126.822 69.8261C126.736 69.3355 126.847 68.8306 127.133 68.4225C127.418 68.0143 127.854 67.7362 128.345 67.6495C132.885 66.9559 137.498 66.8799 142.059 67.4236C146.874 67.8694 151.598 69.024 156.076 70.8501C156.531 71.0566 156.886 71.4356 157.062 71.9037C157.238 72.3718 157.221 72.8906 157.014 73.346C156.808 73.8014 156.429 74.1561 155.961 74.3321C155.493 74.5081 154.974 74.4909 154.518 74.2844L154.596 74.3622ZM154.511 67.7429H154.3C154.055 67.7149 153.818 67.6388 153.603 67.5191C153.387 67.3994 153.197 67.2385 153.044 67.0454C152.891 66.8523 152.777 66.6309 152.709 66.3938C152.642 66.1567 152.621 65.9086 152.65 65.6637L153.529 57.6893C153.585 57.1926 153.836 56.7384 154.227 56.4266C154.617 56.1148 155.116 55.9709 155.613 56.0267C156.109 56.0825 156.564 56.3333 156.875 56.7239C157.187 57.1146 157.331 57.6131 157.275 58.1098L156.38 66.0842C156.308 66.5345 156.075 66.9433 155.724 67.2342C155.373 67.5251 154.928 67.6783 154.472 67.665L154.511 67.7429ZM146.895 65.4067H146.684C146.439 65.3796 146.201 65.3042 145.984 65.185C145.768 65.0657 145.577 64.9048 145.423 64.7116C145.269 64.5184 145.154 64.2967 145.086 64.0592C145.018 63.8216 144.997 63.573 145.026 63.3274L145.913 55.3531C145.968 54.8574 146.217 54.4038 146.607 54.092C146.996 53.7802 147.493 53.6357 147.989 53.6905C148.484 53.7452 148.938 53.9946 149.25 54.3838C149.562 54.773 149.706 55.2701 149.651 55.7658L148.764 63.7402C148.687 64.1869 148.452 64.5911 148.101 64.8785C147.751 65.166 147.309 65.3176 146.856 65.3055L146.895 65.4067ZM131.148 65.1653H130.938C130.443 65.1086 129.99 64.8579 129.679 64.4682C129.368 64.0785 129.225 63.5815 129.279 63.086L130.167 55.1117C130.23 54.6184 130.482 54.1687 130.87 53.8577C131.258 53.5467 131.751 53.3988 132.246 53.4452C132.742 53.5019 133.194 53.7525 133.505 54.1422C133.816 54.5319 133.96 55.0289 133.905 55.5244L133.017 63.4988C132.942 63.9462 132.708 64.3513 132.357 64.6391C132.006 64.9269 131.563 65.0778 131.109 65.064L131.148 65.1653ZM139.107 64.5345H138.897C138.402 64.4778 137.949 64.2271 137.638 63.8374C137.327 63.4477 137.183 62.9507 137.238 62.4552L138.126 54.4809C138.138 54.2237 138.204 53.9717 138.317 53.7406C138.431 53.5095 138.591 53.3042 138.787 53.1373C138.983 52.9704 139.211 52.8455 139.458 52.7702C139.704 52.695 139.963 52.671 140.219 52.6998C140.475 52.7286 140.722 52.8095 140.946 52.9376C141.169 53.0657 141.364 53.2382 141.518 53.4445C141.672 53.6509 141.782 53.8866 141.842 54.1371C141.901 54.3877 141.909 54.6478 141.864 54.9014L140.976 62.8758C140.898 63.3211 140.662 63.7234 140.312 64.0093C139.962 64.2952 139.52 64.4457 139.068 64.4333L139.107 64.5345ZM157.75 48.1809C157.486 48.1814 157.224 48.1261 156.982 48.0184C156.741 47.9107 156.525 47.7532 156.348 47.5561C156.172 47.359 156.039 47.1269 155.958 46.8749C155.878 46.6229 155.852 46.3567 155.881 46.0938L156.099 44.1158C156.141 43.7656 156.279 43.434 156.499 43.1587C156.72 42.8834 157.013 42.6754 157.345 42.5583C158.95 41.982 159.191 41.4525 159.191 41.4447C159.105 40.4168 154.371 37.4575 145.586 36.4841C136.802 35.5107 131.569 37.3407 131.218 38.3453C131.218 38.3453 131.359 38.9138 132.776 39.8249C133.073 40.0129 133.31 40.2805 133.462 40.5973C133.613 40.9141 133.672 41.2672 133.633 41.616L133.407 43.594C133.352 44.0897 133.103 44.5434 132.713 44.8552C132.324 45.167 131.827 45.3114 131.331 45.2567C130.836 45.2019 130.382 44.9525 130.07 44.5633C129.758 44.1741 129.614 43.677 129.669 43.1813L129.77 42.3013C127.675 40.6504 127.348 39.0384 127.434 37.917C127.621 36.3128 128.898 34.1557 133.975 33.0654C141.935 31.736 150.108 32.6474 157.579 35.6976C162.29 37.8781 163.03 40.261 162.882 41.873C162.758 42.9944 162.103 44.4896 159.674 45.6421L159.58 46.5221C159.506 46.9636 159.278 47.3643 158.935 47.6525C158.593 47.9407 158.159 48.0976 157.711 48.0952L157.75 48.1809ZM153.21 46.491C152.946 46.4915 152.684 46.4362 152.442 46.3285C152.201 46.2208 151.985 46.0633 151.808 45.8662C151.632 45.6692 151.499 45.437 151.418 45.185C151.338 44.933 151.312 44.6668 151.341 44.4039L151.52 42.7452C151.52 42.5427 151.326 42.2935 150.967 42.2546C150.609 42.2157 150.344 42.3636 150.313 42.6128L150.204 43.633C150.141 44.1225 149.888 44.5675 149.5 44.8725C149.112 45.1774 148.62 45.318 148.129 45.2639C147.638 45.2099 147.189 44.9655 146.876 44.5834C146.564 44.2012 146.414 43.7118 146.458 43.2202L146.575 42.1923C146.638 41.6289 146.818 41.0849 147.104 40.5954C147.389 40.1058 147.774 39.6815 148.234 39.3499C149.143 38.6861 150.269 38.3887 151.388 38.5166C151.952 38.5645 152.5 38.7237 153.002 38.9852C153.504 39.2466 153.948 39.605 154.311 40.0396C154.673 40.4742 154.945 40.9764 155.112 41.517C155.279 42.0577 155.336 42.626 155.282 43.1891L155.103 44.8478C155.024 45.2972 154.785 45.7028 154.429 45.9892C154.074 46.2756 153.627 46.4235 153.171 46.4053L153.21 46.491ZM136.685 44.6064C136.439 44.5766 136.202 44.4984 135.987 44.3764C135.771 44.2544 135.582 44.091 135.43 43.8955C135.278 43.7001 135.166 43.4765 135.101 43.2376C135.036 42.9988 135.018 42.7494 135.05 42.5038L135.229 40.8373C135.294 40.2757 135.475 39.7337 135.761 39.2457C136.046 38.7578 136.43 38.3345 136.888 38.0027C137.784 37.3429 138.897 37.0453 140.003 37.1694C140.566 37.2173 141.115 37.3765 141.617 37.6379C142.118 37.8994 142.563 38.2578 142.925 38.6924C143.288 39.127 143.56 39.6292 143.727 40.1698C143.893 40.7104 143.951 41.2788 143.896 41.8419L143.787 42.8698C143.704 43.3416 143.444 43.7638 143.06 44.0506C142.676 44.3374 142.197 44.4672 141.721 44.4137C141.245 44.3601 140.807 44.1272 140.497 43.7623C140.186 43.3974 140.026 42.9279 140.049 42.4493L140.158 41.4291C140.158 41.2267 139.964 40.9775 139.606 40.9385C139.372 40.9385 138.983 41.0398 138.951 41.289L138.764 42.9477C138.737 43.1933 138.662 43.4312 138.543 43.6477C138.423 43.8641 138.263 44.0549 138.069 44.209C137.876 44.3631 137.655 44.4775 137.417 44.5457C137.179 44.6139 136.931 44.6346 136.685 44.6064Z"
     fill="white"
     id="path38"
     style="fill:#000000" />
  <path
     d="M65.3913 92.7642C64.5035 112.147 71.3253 129.365 82.5237 143.172C71.4782 127.384 66.9037 107.962 69.7414 88.9037C72.5791 69.845 82.6132 52.5987 97.7793 40.7129V34.4829C79.5177 46.7326 66.5205 67.1902 65.3913 92.7642Z"
     fill="white"
     id="path40"
     style="fill:#000000" />
  <path
     d="M204.607 112.786C204.636 105.193 202.875 97.7011 199.468 90.916C196.062 84.1309 191.105 78.2437 184.999 73.7314V81.2697C189.732 85.8219 193.497 91.2828 196.069 97.3252C198.641 103.368 199.967 109.867 199.967 116.434C199.967 123.001 198.641 129.5 196.069 135.543C193.497 141.585 189.732 147.046 184.999 151.598V151.832C191.103 147.32 196.059 141.434 199.466 134.65C202.872 127.867 204.634 120.376 204.607 112.786Z"
     fill="white"
     id="path42"
     style="fill:#000000" />
  <path
     d="M183.877 152.649C184.259 152.392 184.656 152.104 184.998 151.832V151.598C184.625 151.949 184.259 152.315 183.877 152.649Z"
     fill="white"
     id="path44" />
  <path
     d="M34.5919 230.727C34.5596 230.693 34.5415 230.649 34.5415 230.602C34.5415 230.555 34.5596 230.511 34.5919 230.477C34.6374 230.426 34.6939 230.385 34.7572 230.358C34.8206 230.331 34.8892 230.319 34.958 230.322C35.9212 230.192 36.8994 230.404 37.7225 230.921C37.9621 231.105 38.1567 231.34 38.2917 231.61C38.4266 231.88 38.4983 232.177 38.5012 232.479C38.5168 232.79 38.4595 233.101 38.3337 233.386C38.208 233.671 38.0174 233.923 37.777 234.122C37.5184 234.323 37.2292 234.481 36.9204 234.589C37.1176 235.047 37.3657 235.48 37.6602 235.882L37.886 236.193L38.1196 236.505C38.3221 236.778 38.4779 236.988 38.5791 237.136C38.6038 237.165 38.6174 237.202 38.6174 237.241C38.6174 237.279 38.6038 237.317 38.5791 237.346C38.5208 237.408 38.4488 237.456 38.3688 237.486C38.2764 237.505 38.181 237.505 38.0885 237.486C38.0423 237.482 37.9974 237.469 37.9571 237.446C37.9167 237.423 37.8819 237.392 37.8549 237.354L37.3876 236.715L37.1462 236.404L36.9204 236.084C36.6146 235.675 36.3535 235.234 36.1416 234.768C35.9175 234.809 35.6914 234.838 35.4641 234.854V237.253C35.462 237.292 35.4483 237.33 35.4248 237.362C35.4013 237.394 35.3689 237.418 35.3318 237.432C35.2417 237.474 35.1432 237.495 35.0436 237.494C34.9466 237.495 34.8506 237.474 34.7633 237.432C34.7261 237.418 34.6938 237.394 34.6702 237.362C34.6467 237.33 34.633 237.292 34.6309 237.253L34.5919 230.727ZM35.4252 234.41C36.0724 234.4 36.692 234.147 37.1618 233.701C37.332 233.535 37.4619 233.332 37.5415 233.108C37.6212 232.884 37.6484 232.645 37.6212 232.409C37.6124 232.185 37.5582 231.965 37.4618 231.763C37.3654 231.561 37.2289 231.381 37.0606 231.233C36.5762 230.918 36.001 230.773 35.4252 230.82V234.41Z"
     fill="#F1F2F2"
     id="path46"
     style="fill:#000000" />
  <path
     d="M45.689 230.625C45.6785 230.588 45.6796 230.549 45.6922 230.513C45.7047 230.477 45.7281 230.445 45.7591 230.423C45.8514 230.349 45.9683 230.313 46.0862 230.322H49.0999C49.2053 230.317 49.3095 230.347 49.3958 230.407C49.4266 230.424 49.4522 230.449 49.47 230.479C49.4878 230.509 49.4972 230.544 49.4971 230.579C49.4925 230.61 49.4801 230.64 49.4611 230.666C49.4421 230.692 49.417 230.713 49.3881 230.727C49.3012 230.786 49.1974 230.816 49.0921 230.812H46.5145V233.748H49.0999C49.204 233.745 49.3068 233.772 49.3958 233.826C49.4251 233.845 49.4495 233.87 49.4671 233.899C49.4848 233.929 49.495 233.963 49.4971 233.997C49.4972 234.032 49.4878 234.067 49.47 234.097C49.4522 234.127 49.4266 234.152 49.3958 234.169C49.309 234.228 49.2052 234.258 49.0999 234.254H46.5145V237.05H49.0999C49.2033 237.044 49.306 237.069 49.3958 237.12C49.4267 237.139 49.4521 237.165 49.4699 237.196C49.4876 237.228 49.497 237.263 49.4971 237.299C49.4958 237.333 49.4858 237.366 49.4681 237.394C49.4503 237.423 49.4254 237.447 49.3958 237.463C49.309 237.522 49.2052 237.552 49.0999 237.548H46.094C45.9863 237.552 45.8802 237.522 45.7903 237.463C45.7607 237.447 45.7358 237.423 45.718 237.394C45.7003 237.366 45.6903 237.333 45.689 237.299V230.625Z"
     fill="#F1F2F2"
     id="path48"
     style="fill:#000000" />
  <path
     d="M56.9651 232.627C57.3163 233.105 57.7682 233.501 58.2889 233.787L58.7017 234.044L59.0988 234.309C59.3551 234.472 59.5927 234.662 59.8075 234.877C60.1901 235.225 60.422 235.708 60.4538 236.224C60.4679 236.503 60.3801 236.778 60.2068 236.997C60.0334 237.216 59.7864 237.365 59.5116 237.416C58.8903 237.626 58.2171 237.626 57.5959 237.416C57.075 237.27 56.6208 236.948 56.3109 236.505C56.2862 236.48 56.2723 236.446 56.2723 236.411C56.2723 236.376 56.2862 236.343 56.3109 236.318C56.3808 236.264 56.4646 236.232 56.5523 236.224C56.6548 236.201 56.7613 236.201 56.8638 236.224C56.9569 236.244 57.0398 236.297 57.0975 236.372C57.2462 236.597 57.4573 236.773 57.7049 236.879C58.0061 237.021 58.3376 237.088 58.6705 237.073C58.8186 237.074 58.9651 237.042 59.0997 236.981C59.2342 236.919 59.3536 236.828 59.4493 236.715C59.5751 236.522 59.625 236.289 59.5894 236.061C59.5377 235.811 59.4349 235.575 59.2874 235.368C59.14 235.16 58.9512 234.985 58.7328 234.854C58.5771 234.737 58.3357 234.573 58.0008 234.363L57.6114 234.122C57.4713 234.028 57.3467 233.95 57.2454 233.873C56.6565 233.516 56.2104 232.965 55.9839 232.315C55.8976 232.039 55.8976 231.743 55.9839 231.466C56.0989 231.152 56.3264 230.891 56.6224 230.734C56.9938 230.535 57.4018 230.413 57.8217 230.376C58.271 230.321 58.7266 230.359 59.1611 230.485C59.455 230.551 59.7252 230.696 59.9421 230.904C60.1591 231.113 60.3146 231.378 60.3915 231.669C60.3999 231.706 60.3962 231.745 60.3807 231.78C60.3653 231.815 60.3391 231.844 60.3059 231.863C60.2336 231.925 60.1438 231.964 60.0489 231.972C59.9539 231.992 59.8558 231.992 59.7608 231.972C59.7199 231.964 59.6822 231.944 59.6519 231.915C59.6217 231.886 59.6001 231.849 59.5894 231.809C59.5754 231.743 59.5572 231.678 59.5349 231.614L59.4415 231.412C59.3606 231.268 59.2421 231.15 59.0988 231.069C58.8742 230.96 58.6313 230.894 58.3824 230.874C58.1213 230.841 57.8561 230.862 57.6036 230.937C57.4074 230.981 57.2263 231.076 57.0786 231.213C56.931 231.35 56.822 231.523 56.7626 231.715C56.7111 232.034 56.7836 232.36 56.9651 232.627Z"
     fill="#F1F2F2"
     id="path50"
     style="fill:#000000" />
  <path
     d="M68.0778 230.836C67.9733 230.843 67.8693 230.816 67.7819 230.758C67.7517 230.74 67.7265 230.715 67.7088 230.685C67.691 230.655 67.6814 230.621 67.6807 230.586C67.6806 230.551 67.6899 230.517 67.7077 230.487C67.7256 230.457 67.7512 230.432 67.7819 230.415C67.8695 230.357 67.9727 230.327 68.0778 230.329H72.0961C72.2041 230.323 72.311 230.353 72.3998 230.415C72.4295 230.433 72.4543 230.458 72.472 230.488C72.4896 230.518 72.4996 230.552 72.501 230.586C72.4984 230.621 72.4879 230.654 72.4703 230.684C72.4528 230.714 72.4286 230.739 72.3998 230.758C72.3065 230.815 72.1977 230.843 72.0883 230.836H70.5308V237.323C70.5287 237.362 70.515 237.4 70.4915 237.432C70.468 237.464 70.4356 237.488 70.3985 237.502C70.3087 237.545 70.2099 237.566 70.1103 237.564C70.0133 237.565 69.9173 237.544 69.83 237.502C69.7928 237.488 69.7605 237.464 69.7369 237.432C69.7134 237.4 69.6997 237.362 69.6976 237.323V230.836H68.0778Z"
     fill="#F1F2F2"
     id="path52"
     style="fill:#000000" />
  <path
     d="M78.7311 237.377C78.7124 237.416 78.6851 237.45 78.6515 237.477C78.6178 237.504 78.5784 237.523 78.5364 237.533C78.4414 237.553 78.3433 237.553 78.2483 237.533C78.153 237.526 78.0627 237.487 77.9913 237.424C77.9605 237.403 77.9381 237.372 77.9281 237.337C77.9181 237.301 77.9212 237.263 77.9368 237.229C78.1691 236.602 78.3666 235.962 78.5286 235.313C78.6532 234.823 78.8012 234.153 78.9725 233.312L79.175 232.307L79.3852 231.311V231.202V231.093C79.3852 230.991 79.3852 230.913 79.4319 230.851C79.4745 230.681 79.5733 230.53 79.7123 230.423C79.7854 230.362 79.8752 230.325 79.9698 230.317C80.0644 230.308 80.1593 230.329 80.2418 230.376C80.3869 230.437 80.5056 230.547 80.5767 230.688C80.7681 231.159 80.9192 231.647 81.0284 232.144L81.1763 232.923L81.2542 233.296L81.3243 233.655C81.5501 234.714 81.7838 235.944 82.0407 237.346C82.0481 237.381 82.0437 237.418 82.0282 237.45C82.0127 237.482 81.987 237.509 81.9551 237.525C81.8678 237.567 81.7718 237.589 81.6747 237.587C81.3944 237.587 81.2464 237.502 81.2153 237.346V237.291L81.0128 236.225H79.0893C78.9803 236.614 78.8713 237.011 78.7311 237.377ZM79.868 233C79.6344 234.184 79.4397 235.08 79.2684 235.695H80.9583C80.8025 234.916 80.6546 234.184 80.5222 233.553C80.3898 232.923 80.2341 232.245 80.1172 231.801L79.9926 232.409L79.868 233Z"
     fill="#F1F2F2"
     id="path54"
     style="fill:#000000" />
  <path
     d="M92.2579 237.439C91.7323 237.621 91.1581 237.601 90.6459 237.385C90.2398 237.211 89.901 236.911 89.6803 236.528C89.4072 236.049 89.235 235.519 89.1741 234.971C89.1079 234.454 89.0767 233.934 89.0807 233.413C89.0807 233.086 89.0807 232.634 89.1274 232.004V231.303C89.1274 231.038 89.1274 230.804 89.1274 230.594C89.1285 230.554 89.1418 230.516 89.1654 230.484C89.1891 230.452 89.222 230.428 89.2598 230.415C89.3471 230.373 89.4431 230.351 89.5401 230.353C89.6397 230.35 89.7385 230.372 89.8283 230.415C89.8655 230.431 89.8976 230.457 89.921 230.49C89.9443 230.523 89.9581 230.561 89.9606 230.602C89.9606 230.812 89.9606 231.061 89.9606 231.334V232.074C89.9606 232.704 89.9139 233.203 89.9606 233.553C89.9606 234.12 90.0101 234.685 90.1086 235.243C90.15 235.476 90.2099 235.705 90.2877 235.928C90.359 236.164 90.4754 236.384 90.6304 236.575C90.7306 236.715 90.8577 236.834 91.0042 236.925C91.1869 237.035 91.3988 237.087 91.6116 237.073C91.8171 237.064 92.0151 236.994 92.18 236.871C92.3105 236.767 92.4236 236.644 92.5149 236.505C92.8007 236.029 92.9837 235.498 93.0522 234.947C93.0522 234.714 93.1068 234.449 93.1223 234.169V233.39C93.1223 233.063 93.1223 232.611 93.0678 231.98V231.279C93.0678 231.015 93.0678 230.789 93.0678 230.578C93.0683 230.54 93.0805 230.502 93.1027 230.47C93.1249 230.438 93.1561 230.413 93.1924 230.399C93.2797 230.357 93.3757 230.336 93.4728 230.337C93.5749 230.335 93.6761 230.356 93.7687 230.399C93.8045 230.416 93.8349 230.443 93.8569 230.476C93.8788 230.508 93.8914 230.547 93.8933 230.586C93.8933 230.882 93.8933 231.264 93.8933 231.731V232.299V232.868C93.9265 233.633 93.8848 234.4 93.7687 235.158V235.298V235.446C93.7687 235.562 93.722 235.671 93.6986 235.765C93.6447 235.991 93.5663 236.21 93.465 236.419C93.3463 236.664 93.1775 236.881 92.9696 237.057C92.7617 237.233 92.5193 237.363 92.2579 237.439Z"
     fill="#F1F2F2"
     id="path56"
     style="fill:#000000" />
  <path
     d="M101.097 230.727C101.064 230.693 101.046 230.649 101.046 230.602C101.046 230.556 101.064 230.511 101.097 230.477C101.141 230.424 101.197 230.382 101.261 230.355C101.324 230.328 101.394 230.317 101.463 230.322C102.423 230.192 103.399 230.404 104.219 230.921C104.455 231.117 104.645 231.362 104.777 231.639C104.909 231.916 104.979 232.218 104.983 232.524C104.987 232.831 104.924 233.135 104.799 233.415C104.674 233.694 104.489 233.944 104.258 234.145C103.996 234.345 103.704 234.502 103.394 234.613C103.604 235.072 103.865 235.505 104.173 235.905L104.398 236.217L104.632 236.528C104.835 236.801 104.99 237.011 105.092 237.159C105.113 237.19 105.124 237.227 105.124 237.264C105.124 237.302 105.113 237.338 105.092 237.369C105.033 237.432 104.961 237.48 104.881 237.51C104.786 237.529 104.688 237.529 104.593 237.51C104.547 237.504 104.503 237.489 104.463 237.467C104.423 237.444 104.388 237.414 104.36 237.377C104.258 237.229 104.103 237.019 103.892 236.739L103.651 236.427L103.433 236.108C103.127 235.698 102.866 235.257 102.654 234.792C102.427 234.832 102.199 234.861 101.969 234.877V237.276C101.967 237.316 101.953 237.354 101.929 237.385C101.906 237.417 101.874 237.442 101.836 237.455C101.749 237.497 101.653 237.519 101.556 237.517C101.456 237.52 101.358 237.498 101.268 237.455C101.231 237.441 101.199 237.416 101.176 237.385C101.153 237.353 101.139 237.315 101.136 237.276L101.097 230.727ZM101.93 234.41C102.579 234.399 103.201 234.147 103.674 233.702C103.844 233.535 103.974 233.333 104.054 233.108C104.134 232.884 104.161 232.645 104.134 232.409C104.124 232.184 104.068 231.964 103.971 231.762C103.873 231.56 103.735 231.38 103.565 231.233C103.082 230.916 102.506 230.77 101.93 230.82V234.41Z"
     fill="#F1F2F2"
     id="path58"
     style="fill:#000000" />
  <path
     d="M112.84 237.377C112.822 237.416 112.794 237.45 112.761 237.477C112.727 237.504 112.688 237.523 112.646 237.533C112.55 237.552 112.452 237.552 112.357 237.533C112.262 237.526 112.172 237.487 112.1 237.424C112.07 237.403 112.047 237.372 112.037 237.336C112.027 237.301 112.03 237.263 112.046 237.229C112.256 236.668 112.451 236.022 112.638 235.313C112.762 234.823 112.91 234.153 113.082 233.312L113.284 232.307L113.494 231.31V231.201V231.092C113.494 230.991 113.494 230.913 113.541 230.851C113.585 230.683 113.68 230.534 113.814 230.423C113.888 230.362 113.979 230.326 114.075 230.317C114.171 230.309 114.267 230.329 114.351 230.376C114.496 230.437 114.615 230.547 114.686 230.687C114.877 231.159 115.028 231.646 115.138 232.144C115.138 232.331 115.223 232.58 115.286 232.922L115.363 233.296L115.433 233.655C115.659 234.714 115.893 235.944 116.15 237.346C116.158 237.382 116.153 237.42 116.136 237.453C116.119 237.485 116.091 237.511 116.057 237.525C115.972 237.568 115.879 237.59 115.784 237.587C115.504 237.587 115.356 237.502 115.324 237.346V237.291L115.122 236.224H113.245C113.113 236.614 112.98 237.011 112.84 237.377ZM113.977 233C113.744 234.184 113.549 235.08 113.378 235.695H115.067C114.912 234.916 114.764 234.184 114.631 233.553C114.499 232.922 114.343 232.245 114.226 231.801L114.102 232.408L113.977 233Z"
     fill="#F1F2F2"
     id="path60"
     style="fill:#000000" />
  <path
     d="M122.364 230.835C122.257 230.843 122.151 230.815 122.06 230.757C122.032 230.739 122.008 230.713 121.99 230.684C121.972 230.654 121.962 230.621 121.959 230.586C121.961 230.551 121.971 230.518 121.988 230.488C122.006 230.458 122.031 230.433 122.06 230.415C122.15 230.356 122.257 230.326 122.364 230.329H126.382C126.488 230.324 126.592 230.354 126.678 230.415C126.709 230.432 126.735 230.456 126.753 230.487C126.77 230.517 126.78 230.551 126.78 230.586C126.779 230.621 126.769 230.655 126.751 230.685C126.734 230.715 126.709 230.74 126.678 230.757C126.588 230.814 126.482 230.841 126.375 230.835H124.817V237.322C124.816 237.362 124.803 237.401 124.779 237.433C124.755 237.465 124.723 237.489 124.685 237.501C124.597 237.544 124.501 237.565 124.404 237.564C124.305 237.565 124.206 237.544 124.116 237.501C124.08 237.487 124.048 237.462 124.024 237.431C124.001 237.399 123.987 237.362 123.984 237.322V230.835H122.364Z"
     fill="#F1F2F2"
     id="path62"
     style="fill:#000000" />
  <path
     d="M134.746 237.322C134.746 237.361 134.734 237.399 134.711 237.431C134.689 237.463 134.658 237.487 134.622 237.501C134.534 237.544 134.438 237.565 134.341 237.564C134.242 237.566 134.143 237.545 134.053 237.501C134.017 237.487 133.985 237.462 133.961 237.431C133.938 237.399 133.924 237.362 133.921 237.322V230.563C133.923 230.522 133.937 230.484 133.961 230.451C133.984 230.418 134.016 230.392 134.053 230.376C134.145 230.34 134.243 230.321 134.341 230.321C134.438 230.32 134.534 230.341 134.622 230.384C134.658 230.398 134.689 230.422 134.711 230.454C134.734 230.486 134.746 230.524 134.746 230.563V237.322Z"
     fill="#F1F2F2"
     id="path64"
     style="fill:#000000" />
  <path
     d="M144.107 237.517C143.764 237.467 143.436 237.341 143.148 237.148C142.86 236.955 142.618 236.701 142.44 236.403C142.045 235.677 141.859 234.854 141.903 234.028C141.872 233.194 142.046 232.366 142.409 231.614C142.609 231.239 142.904 230.922 143.265 230.697C143.626 230.471 144.04 230.345 144.465 230.329H144.839C145.148 230.358 145.449 230.445 145.727 230.586C146.116 230.793 146.442 231.103 146.669 231.482C146.865 231.806 147.005 232.162 147.082 232.533C147.253 233.299 147.292 234.089 147.198 234.869C147.161 235.522 146.94 236.151 146.56 236.684C146.289 236.991 145.947 237.226 145.563 237.369C145.101 237.554 144.596 237.605 144.107 237.517ZM142.978 232.284C142.769 232.953 142.688 233.656 142.736 234.355C142.738 235.028 142.909 235.69 143.235 236.279C143.392 236.528 143.609 236.734 143.865 236.878C144.191 237.065 144.577 237.115 144.94 237.019C145.261 236.952 145.552 236.786 145.773 236.544C145.942 236.347 146.071 236.119 146.155 235.874C146.321 235.371 146.408 234.846 146.412 234.316C146.457 233.619 146.375 232.92 146.17 232.253C146.17 232.167 146.116 232.105 146.1 232.05L145.999 231.824C145.919 231.655 145.819 231.496 145.703 231.349C145.571 231.176 145.4 231.036 145.204 230.94C145.008 230.844 144.792 230.795 144.574 230.796C144.356 230.804 144.143 230.857 143.947 230.952C143.751 231.047 143.577 231.183 143.437 231.349C143.321 231.493 143.226 231.653 143.157 231.824C143.084 231.972 143.024 232.126 142.978 232.284Z"
     fill="#F1F2F2"
     id="path66"
     style="fill:#000000" />
  <path
     d="M154.519 230.672C154.402 230.555 154.456 230.454 154.69 230.376C154.784 230.339 154.886 230.326 154.987 230.338C155.088 230.35 155.184 230.388 155.266 230.446C155.749 230.876 156.129 231.408 156.38 232.004C156.504 232.269 156.637 232.588 156.793 232.962L156.987 233.437L157.182 233.912L157.392 234.426L157.595 234.932C157.766 235.321 157.922 235.656 158.07 235.936L158.179 236.147V230.516C158.181 230.477 158.195 230.439 158.218 230.407C158.242 230.375 158.274 230.351 158.311 230.337C158.401 230.294 158.5 230.273 158.599 230.275C158.696 230.274 158.792 230.295 158.88 230.337C158.916 230.352 158.948 230.376 158.971 230.408C158.995 230.44 159.009 230.477 159.012 230.516V237.299C159.012 237.432 158.903 237.51 158.677 237.533C158.609 237.55 158.538 237.554 158.468 237.543C158.399 237.532 158.332 237.508 158.272 237.471C158.049 237.32 157.86 237.124 157.719 236.894C157.653 236.789 157.593 236.68 157.54 236.567L157.455 236.412L157.369 236.256C157.213 235.968 157.057 235.641 156.886 235.267L156.684 234.768L156.473 234.27L156.271 233.756L156.061 233.25C155.897 232.845 155.757 232.51 155.624 232.23C155.492 231.949 155.422 231.817 155.344 231.677V237.276C155.345 237.315 155.333 237.353 155.311 237.386C155.288 237.418 155.256 237.442 155.22 237.455C155.13 237.498 155.031 237.52 154.931 237.517C154.831 237.521 154.731 237.497 154.643 237.447C154.606 237.434 154.574 237.41 154.552 237.378C154.53 237.346 154.518 237.307 154.519 237.268V230.672Z"
     fill="#F1F2F2"
     id="path68"
     style="fill:#000000" />
  <path
     d="M175.21 230.727C175.178 230.693 175.159 230.649 175.159 230.602C175.159 230.556 175.178 230.511 175.21 230.477C175.254 230.424 175.31 230.382 175.374 230.355C175.438 230.328 175.507 230.317 175.576 230.322C176.537 230.192 177.512 230.404 178.333 230.921C178.572 231.105 178.766 231.341 178.901 231.611C179.036 231.88 179.108 232.177 179.111 232.479C179.123 232.79 179.064 233.099 178.939 233.384C178.813 233.669 178.625 233.921 178.387 234.122C178.125 234.321 177.833 234.479 177.523 234.589C177.733 235.048 177.994 235.482 178.301 235.882L178.527 236.193L178.761 236.505L179.22 237.136C179.244 237.166 179.256 237.203 179.256 237.241C179.256 237.279 179.244 237.316 179.22 237.346C179.167 237.41 179.097 237.458 179.018 237.486C178.923 237.505 178.825 237.505 178.73 237.486C178.684 237.48 178.64 237.466 178.6 237.443C178.56 237.42 178.525 237.39 178.496 237.354C178.395 237.206 178.239 236.996 178.029 236.715L177.788 236.404L177.562 236.084C177.258 235.673 176.997 235.232 176.783 234.768C176.556 234.809 176.327 234.837 176.098 234.854V237.252C176.096 237.292 176.082 237.33 176.058 237.362C176.035 237.394 176.002 237.418 175.965 237.432C175.878 237.474 175.782 237.495 175.685 237.494C175.585 237.496 175.487 237.475 175.397 237.432C175.36 237.417 175.328 237.393 175.305 237.361C175.281 237.329 175.267 237.292 175.264 237.252L175.21 230.727ZM176.043 234.41C176.693 234.399 177.315 234.147 177.788 233.701C177.958 233.535 178.088 233.332 178.167 233.108C178.247 232.884 178.274 232.645 178.247 232.409C178.237 232.184 178.182 231.964 178.084 231.762C177.986 231.56 177.848 231.38 177.679 231.233C177.195 230.916 176.619 230.77 176.043 230.82V234.41Z"
     fill="#F1F2F2"
     id="path70"
     style="fill:#000000" />
  <path
     d="M186.953 237.377C186.935 237.416 186.907 237.45 186.874 237.477C186.84 237.504 186.801 237.523 186.759 237.533C186.664 237.553 186.565 237.553 186.47 237.533C186.376 237.522 186.287 237.484 186.213 237.424C186.183 237.403 186.16 237.372 186.15 237.337C186.14 237.301 186.143 237.263 186.159 237.229C186.391 236.602 186.589 235.962 186.751 235.313C186.875 234.823 187.023 234.153 187.195 233.312L187.397 232.307C187.475 231.934 187.545 231.599 187.615 231.311V231.202V231.092C187.615 230.991 187.615 230.913 187.662 230.851C187.704 230.681 187.803 230.53 187.942 230.423C188.015 230.362 188.105 230.325 188.2 230.317C188.294 230.308 188.389 230.329 188.472 230.376C188.617 230.437 188.736 230.547 188.807 230.688C188.998 231.159 189.149 231.647 189.258 232.144C189.297 232.331 189.344 232.58 189.406 232.923L189.484 233.296L189.554 233.655C189.783 234.693 190.024 235.923 190.279 237.346C190.287 237.382 190.282 237.42 190.265 237.453C190.248 237.486 190.219 237.511 190.185 237.525C190.098 237.568 190.002 237.59 189.905 237.587C189.632 237.587 189.476 237.502 189.445 237.346V237.291L189.251 236.225H187.319C187.217 236.615 187.095 237 186.953 237.377ZM188.098 233C187.864 234.184 187.662 235.08 187.498 235.695H189.18C189.025 234.916 188.877 234.184 188.744 233.553C188.612 232.923 188.456 232.245 188.339 231.801L188.215 232.409L188.098 233Z"
     fill="#F1F2F2"
     id="path72"
     style="fill:#000000" />
  <path
     d="M197.35 230.727C197.318 230.694 197.3 230.651 197.3 230.606C197.3 230.561 197.318 230.517 197.35 230.485C197.393 230.432 197.45 230.389 197.513 230.362C197.577 230.335 197.646 230.324 197.716 230.329C198.679 230.196 199.658 230.408 200.48 230.929C200.712 231.127 200.898 231.373 201.026 231.65C201.153 231.927 201.219 232.228 201.219 232.533C201.219 232.838 201.153 233.139 201.026 233.416C200.898 233.693 200.712 233.939 200.48 234.137C200.17 234.37 199.822 234.546 199.452 234.659C199.036 234.795 198.604 234.879 198.167 234.908V237.33C198.166 237.37 198.153 237.409 198.129 237.441C198.106 237.473 198.073 237.497 198.035 237.509C197.948 237.552 197.852 237.573 197.754 237.572C197.655 237.574 197.556 237.553 197.466 237.509C197.43 237.495 197.398 237.47 197.374 237.439C197.351 237.407 197.337 237.369 197.334 237.33L197.35 230.727ZM198.183 234.402C198.832 234.397 199.455 234.147 199.927 233.701C200.097 233.535 200.227 233.332 200.307 233.108C200.387 232.884 200.414 232.645 200.387 232.409C200.377 232.185 200.321 231.967 200.223 231.766C200.126 231.565 199.988 231.386 199.818 231.241C199.336 230.92 198.76 230.772 198.183 230.82V234.402Z"
     fill="#F1F2F2"
     id="path74"
     style="fill:#000000" />
  <path
     d="M209.179 237.322C209.176 237.361 209.163 237.398 209.142 237.429C209.12 237.461 209.089 237.486 209.054 237.501C208.964 237.545 208.866 237.566 208.766 237.564C208.669 237.565 208.573 237.544 208.486 237.501C208.449 237.487 208.417 237.463 208.394 237.431C208.37 237.399 208.356 237.362 208.353 237.322V230.563C208.356 230.522 208.37 230.484 208.393 230.451C208.416 230.418 208.448 230.392 208.486 230.376C208.575 230.341 208.67 230.322 208.766 230.321C208.866 230.319 208.964 230.341 209.054 230.384C209.089 230.399 209.12 230.424 209.142 230.456C209.163 230.487 209.176 230.524 209.179 230.563V237.322Z"
     fill="#F1F2F2"
     id="path76"
     style="fill:#000000" />
  <path
     d="M216.351 230.726C216.328 230.716 216.307 230.701 216.29 230.681C216.273 230.662 216.261 230.639 216.255 230.614C216.248 230.59 216.247 230.564 216.251 230.539C216.256 230.514 216.266 230.49 216.281 230.469C216.323 230.409 216.381 230.362 216.449 230.334C216.516 230.305 216.59 230.295 216.662 230.306C217.226 230.253 217.795 230.319 218.332 230.5C218.868 230.681 219.361 230.973 219.777 231.357C220.348 231.95 220.671 232.738 220.681 233.561C220.76 234.466 220.499 235.369 219.949 236.092C219.543 236.548 219.045 236.913 218.488 237.163C217.931 237.413 217.327 237.541 216.717 237.54C216.653 237.555 216.586 237.553 216.523 237.534C216.46 237.515 216.404 237.479 216.359 237.431C216.326 237.398 216.308 237.353 216.308 237.307C216.308 237.26 216.326 237.215 216.359 237.182L216.351 230.726ZM217.184 236.956C217.633 236.906 218.065 236.756 218.448 236.516C218.831 236.276 219.155 235.952 219.396 235.57C219.743 234.952 219.895 234.243 219.832 233.537C219.811 232.921 219.608 232.325 219.248 231.824C218.998 231.514 218.685 231.262 218.329 231.084C217.972 230.907 217.582 230.809 217.184 230.796V236.956Z"
     fill="#F1F2F2"
     id="path78"
     style="fill:#000000" />
  <path
     d="M227.845 230.625C227.835 230.589 227.835 230.551 227.846 230.515C227.858 230.479 227.879 230.447 227.908 230.423C228.003 230.349 228.122 230.313 228.242 230.322H231.256C231.362 230.316 231.466 230.347 231.552 230.407C231.583 230.424 231.609 230.449 231.626 230.479C231.644 230.509 231.654 230.544 231.653 230.579C231.652 230.612 231.642 230.645 231.624 230.674C231.607 230.702 231.582 230.726 231.552 230.742C231.465 230.8 231.361 230.83 231.256 230.828H228.671V233.764H231.256C231.36 233.76 231.463 233.787 231.552 233.841C231.581 233.86 231.606 233.885 231.624 233.915C231.641 233.945 231.651 233.978 231.653 234.013C231.654 234.048 231.644 234.082 231.626 234.112C231.609 234.143 231.583 234.167 231.552 234.184C231.465 234.242 231.361 234.272 231.256 234.27H228.671V237.066H231.256C231.36 237.06 231.462 237.084 231.552 237.136C231.583 237.154 231.609 237.181 231.626 237.212C231.644 237.243 231.653 237.279 231.653 237.315C231.652 237.348 231.642 237.381 231.624 237.41C231.607 237.439 231.582 237.462 231.552 237.478C231.465 237.536 231.361 237.566 231.256 237.564H228.25C228.142 237.568 228.036 237.538 227.947 237.478C227.917 237.462 227.892 237.439 227.874 237.41C227.857 237.381 227.847 237.348 227.845 237.315V230.625Z"
     fill="#F1F2F2"
     id="path80"
     style="fill:#000000" />
</svg>
