<svg width="500" height="500" viewBox="0 0 500 500" fill="none" xmlns="http://www.w3.org/2000/svg">
<g filter="url(#filter0_i)">
<path d="M250 0L254.239 169.111L276.132 1.36952L262.671 169.997L301.978 5.4631L270.964 171.76L327.254 12.2359L279.028 174.38L351.684 21.6136L286.773 177.828L375 33.4937L294.116 182.068L396.946 47.7458L300.975 187.051L417.283 64.2138L307.276 192.724L435.786 82.7173L312.949 199.025L452.254 103.054L317.932 205.884L466.506 125L322.172 213.227L478.386 148.316L325.62 220.972L487.764 172.746L328.24 229.036L494.537 198.022L330.003 237.329L498.63 223.868L330.889 245.761L500 250L330.889 254.239L498.63 276.132L330.003 262.671L494.537 301.978L328.24 270.964L487.764 327.254L325.62 279.028L478.386 351.684L322.172 286.773L466.506 375L317.932 294.116L452.254 396.946L312.949 300.975L435.786 417.283L307.276 307.276L417.283 435.786L300.975 312.949L396.946 452.254L294.116 317.932L375 466.506L286.773 322.172L351.684 478.386L279.028 325.62L327.254 487.764L270.964 328.24L301.978 494.537L262.671 330.003L276.132 498.63L254.239 330.889L250 500L245.761 330.889L223.868 498.63L237.329 330.003L198.022 494.537L229.036 328.24L172.746 487.764L220.972 325.62L148.316 478.386L213.227 322.172L125 466.506L205.884 317.932L103.054 452.254L199.025 312.949L82.7173 435.786L192.724 307.276L64.2138 417.283L187.051 300.975L47.7458 396.946L182.068 294.116L33.4937 375L177.828 286.773L21.6136 351.684L174.38 279.028L12.2359 327.254L171.76 270.964L5.4631 301.978L169.997 262.671L1.36952 276.132L169.111 254.239L0 250L169.111 245.761L1.36952 223.868L169.997 237.329L5.4631 198.022L171.76 229.036L12.2359 172.746L174.38 220.972L21.6136 148.316L177.828 213.227L33.4937 125L182.068 205.884L47.7458 103.054L187.051 199.025L64.2138 82.7173L192.724 192.724L82.7173 64.2138L199.025 187.051L103.054 47.7458L205.884 182.068L125 33.4937L213.227 177.828L148.316 21.6136L220.972 174.38L172.746 12.2359L229.036 171.76L198.022 5.4631L237.329 169.997L223.868 1.36952L245.761 169.111L250 0Z" fill="#F2B705"/>
<rect x="167" y="168" width="165" height="165" rx="82.5" fill="#D92B04"/>
<g filter="url(#filter1_i)">
<path d="M187.751 258.264C185.975 258.264 184.479 257.52 183.263 256.032C182.047 254.544 181.439 252.72 181.439 250.56C181.439 247.92 182.167 245.696 183.623 243.888C185.095 242.08 186.895 241.176 189.023 241.176C189.855 241.176 190.623 241.264 191.327 241.44C192.047 241.6 192.559 241.768 192.863 241.944L193.295 242.208L191.663 245.544C191.295 245.224 190.775 244.928 190.103 244.656C189.431 244.368 188.823 244.224 188.279 244.224C187.175 244.224 186.287 244.68 185.615 245.592C184.959 246.504 184.631 247.808 184.631 249.504C184.631 251.184 184.975 252.568 185.663 253.656C186.351 254.728 187.287 255.264 188.471 255.264C189.239 255.264 189.935 255.024 190.559 254.544C191.183 254.064 191.623 253.424 191.879 252.624L193.871 253.776C193.343 255.184 192.535 256.288 191.447 257.088C190.359 257.872 189.127 258.264 187.751 258.264ZM202.578 241.2C204.466 241.2 206.018 241.92 207.234 243.36C208.466 244.8 209.082 246.632 209.082 248.856C209.082 251.672 208.354 253.944 206.898 255.672C205.442 257.4 203.53 258.264 201.162 258.264C199.322 258.264 197.778 257.528 196.53 256.056C195.282 254.568 194.658 252.736 194.658 250.56C194.658 247.84 195.402 245.6 196.89 243.84C198.378 242.08 200.274 241.2 202.578 241.2ZM205.818 250.2C205.818 246.152 204.49 244.128 201.834 244.128C200.618 244.128 199.658 244.584 198.954 245.496C198.266 246.392 197.922 247.744 197.922 249.552C197.922 251.344 198.29 252.824 199.026 253.992C199.778 255.144 200.762 255.72 201.978 255.72C203.21 255.72 204.154 255.232 204.81 254.256C205.482 253.264 205.818 251.912 205.818 250.2ZM218.685 250.512H218.925L222.429 241.392L225.741 241.488L225.837 251.808L226.293 258H223.053L223.173 251.76L222.909 245.448L220.029 253.392L217.077 253.536L214.389 245.448L214.173 251.76L214.341 258H211.365L211.701 252.168L211.845 241.872L215.661 241.272L218.685 250.512ZM236.614 250.512H236.854L240.358 241.392L243.67 241.488L243.766 251.808L244.222 258H240.982L241.102 251.76L240.838 245.448L237.958 253.392L235.006 253.536L232.318 245.448L232.102 251.76L232.27 258H229.294L229.63 252.168L229.774 241.872L233.59 241.272L236.614 250.512ZM257.28 258.12L256.104 253.44H250.368L249.096 258L246.024 257.76L248.136 251.928L251.352 241.608L255.648 241.296L258.744 251.568L260.736 257.592L257.28 258.12ZM253.488 244.416H253.176L251.112 250.896H255.384L253.488 244.416ZM275.702 241.392L275.39 251.76L275.654 257.472L272.822 258.072L265.67 246.504V251.76L266.006 258H263.006L263.294 252.168L263.006 241.512L265.886 241.368L273.014 253.104L272.774 241.752L275.702 241.392ZM284.473 258.264C283.337 258.264 281.697 258.176 279.553 258L279.841 252.168L279.553 241.44H285.961C288.121 241.44 289.809 242.088 291.025 243.384C292.241 244.68 292.849 246.48 292.849 248.784C292.849 251.696 292.097 254.008 290.593 255.72C289.089 257.416 287.049 258.264 284.473 258.264ZM285.097 244.032C284.041 244.032 283.297 244.04 282.865 244.056L282.625 251.76L282.793 255.648C284.137 255.744 285.041 255.792 285.505 255.792C286.769 255.792 287.761 255.28 288.481 254.256C289.217 253.232 289.585 251.744 289.585 249.792C289.585 247.84 289.225 246.392 288.505 245.448C287.801 244.504 286.665 244.032 285.097 244.032ZM295.49 258L295.778 252.168L295.49 241.44H304.49L304.226 244.008H298.826L298.682 248.256H303.482L303.218 250.8H298.586L298.562 251.76L298.73 255.456H304.538L304.274 258H295.49ZM311.599 251.616H310.231V251.76L310.519 258H307.303L307.591 252.168L307.303 241.44H312.511C314.047 241.44 315.271 241.856 316.183 242.688C317.095 243.52 317.551 244.624 317.551 246C317.551 247.04 317.279 247.992 316.735 248.856C316.207 249.704 315.487 250.376 314.575 250.872L318.751 256.776L315.847 258.264L312.103 251.592C311.991 251.608 311.823 251.616 311.599 251.616ZM311.647 243.864H310.471L310.303 249.288H311.935C312.735 249.288 313.351 249.024 313.783 248.496C314.231 247.968 314.455 247.216 314.455 246.24C314.455 244.656 313.519 243.864 311.647 243.864Z" fill="white"/>
</g>
</g>
<defs>
<filter id="filter0_i" x="0" y="0" width="500" height="504" filterUnits="userSpaceOnUse" color-interpolation-filters="sRGB">
<feFlood flood-opacity="0" result="BackgroundImageFix"/>
<feBlend mode="normal" in="SourceGraphic" in2="BackgroundImageFix" result="shape"/>
<feColorMatrix in="SourceAlpha" type="matrix" values="0 0 0 0 0 0 0 0 0 0 0 0 0 0 0 0 0 0 127 0" result="hardAlpha"/>
<feOffset dy="4"/>
<feGaussianBlur stdDeviation="2"/>
<feComposite in2="hardAlpha" operator="arithmetic" k2="-1" k3="1"/>
<feColorMatrix type="matrix" values="0 0 0 0 0 0 0 0 0 0 0 0 0 0 0 0 0 0 0.25 0"/>
<feBlend mode="normal" in2="shape" result="effect1_innerShadow"/>
</filter>
<filter id="filter1_i" x="181.439" y="241.176" width="137.312" height="21.088" filterUnits="userSpaceOnUse" color-interpolation-filters="sRGB">
<feFlood flood-opacity="0" result="BackgroundImageFix"/>
<feBlend mode="normal" in="SourceGraphic" in2="BackgroundImageFix" result="shape"/>
<feColorMatrix in="SourceAlpha" type="matrix" values="0 0 0 0 0 0 0 0 0 0 0 0 0 0 0 0 0 0 127 0" result="hardAlpha"/>
<feOffset dy="4"/>
<feGaussianBlur stdDeviation="2"/>
<feComposite in2="hardAlpha" operator="arithmetic" k2="-1" k3="1"/>
<feColorMatrix type="matrix" values="0 0 0 0 0 0 0 0 0 0 0 0 0 0 0 0 0 0 0.25 0"/>
<feBlend mode="normal" in2="shape" result="effect1_innerShadow"/>
</filter>
</defs>
</svg>
