<svg width="500" height="500" viewBox="0 0 500 500" fill="none" xmlns="http://www.w3.org/2000/svg">
<path d="M250 0L254.239 169.111L276.132 1.36952L262.671 169.997L301.978 5.4631L270.964 171.76L327.254 12.2359L279.028 174.38L351.684 21.6136L286.773 177.828L375 33.4937L294.116 182.068L396.946 47.7458L300.975 187.051L417.283 64.2138L307.276 192.724L435.786 82.7173L312.949 199.025L452.254 103.054L317.932 205.884L466.506 125L322.172 213.227L478.386 148.316L325.62 220.972L487.764 172.746L328.24 229.036L494.537 198.022L330.003 237.329L498.63 223.868L330.889 245.761L500 250L330.889 254.239L498.63 276.132L330.003 262.671L494.537 301.978L328.24 270.964L487.764 327.254L325.62 279.028L478.386 351.684L322.172 286.773L466.506 375L317.932 294.116L452.254 396.946L312.949 300.975L435.786 417.283L307.276 307.276L417.283 435.786L300.975 312.949L396.946 452.254L294.116 317.932L375 466.506L286.773 322.172L351.684 478.386L279.028 325.62L327.254 487.764L270.964 328.24L301.978 494.537L262.671 330.003L276.132 498.63L254.239 330.889L250 500L245.761 330.889L223.868 498.63L237.329 330.003L198.022 494.537L229.036 328.24L172.746 487.764L220.972 325.62L148.316 478.386L213.227 322.172L125 466.506L205.884 317.932L103.054 452.254L199.025 312.949L82.7173 435.786L192.724 307.276L64.2138 417.283L187.051 300.975L47.7458 396.946L182.068 294.116L33.4937 375L177.828 286.773L21.6136 351.684L174.38 279.028L12.2359 327.254L171.76 270.964L5.4631 301.978L169.997 262.671L1.36952 276.132L169.111 254.239L0 250L169.111 245.761L1.36952 223.868L169.997 237.329L5.4631 198.022L171.76 229.036L12.2359 172.746L174.38 220.972L21.6136 148.316L177.828 213.227L33.4937 125L182.068 205.884L47.7458 103.054L187.051 199.025L64.2138 82.7173L192.724 192.724L82.7173 64.2138L199.025 187.051L103.054 47.7458L205.884 182.068L125 33.4937L213.227 177.828L148.316 21.6136L220.972 174.38L172.746 12.2359L229.036 171.76L198.022 5.4631L237.329 169.997L223.868 1.36952L245.761 169.111L250 0Z" fill="#F2B705"/>
</svg>
